<?xml version="1.0" standalone="no"?>
<!DOCTYPE svg PUBLIC "-//W3C//DTD SVG 20010904//EN"
 "http://www.w3.org/TR/2001/REC-SVG-20010904/DTD/svg10.dtd">
<svg version="1.0" xmlns="http://www.w3.org/2000/svg"
 width="163.000000pt" height="163.000000pt" viewBox="0 0 163.000000 163.000000"
 preserveAspectRatio="xMidYMid meet">
<metadata>
Created by potrace 1.14, written by Peter Selinger 2001-2017
</metadata>
<g transform="translate(0.000000,163.000000) scale(0.100000,-0.100000)"
fill="#000000" stroke="none">
<path d="M244 1595 c-7 -5 -65 -97 -128 -203 l-116 -193 0 -577 c0 -507 2
-580 16 -600 l15 -22 779 0 779 0 15 22 c14 20 16 93 15 603 l-1 580 -121 199
-122 200 -559 0 c-358 1 -564 -3 -572 -9z m1061 -119 c8 -2 19 -16 27 -30 7
-14 41 -72 75 -129 35 -57 63 -106 63 -110 0 -4 -299 -7 -664 -7 l-665 0 83
138 c70 116 87 138 111 142 37 6 953 3 970 -4z m-866 -514 c15 -11 24 -32 27
-62 8 -69 23 -119 50 -162 144 -228 478 -216 599 22 23 45 29 70 40 145 5 40
34 75 62 75 7 0 24 -11 37 -24 20 -19 23 -31 20 -72 -12 -135 -77 -256 -181
-336 -86 -65 -158 -90 -265 -94 -166 -6 -304 62 -402 197 -35 48 -72 152 -80
222 -5 53 -3 60 19 83 29 29 45 30 74 6z"/>
</g>
</svg>
